# This file uses centimeters as units for non-parametric coordinates.

mtllib Sharkfin.mtl
g default
v 2.407339 -0.576464 -0.289937
v 2.047804 -0.576464 -0.551493
v 1.487817 -0.576464 -0.759065
v 0.782192 -0.576464 -0.892334
v 0.000000 -0.576464 -0.938255
v -0.782192 -0.576464 -0.892334
v -1.487817 -0.576464 -0.759064
v -2.047804 -0.576464 -0.551493
v -2.407338 -0.576464 -0.289937
v -2.531224 -0.576464 0.000000
v -2.407338 -0.576464 0.289937
v -2.047804 -0.576464 0.551492
v -1.487816 -0.576464 0.759064
v -0.782191 -0.576464 0.892334
v -0.000000 -0.576464 0.938255
v 0.782191 -0.576464 0.892333
v 1.487816 -0.576464 0.759064
v 2.047803 -0.576464 0.551492
v 2.407337 -0.576464 0.289937
v 2.531224 -0.576464 0.000000
v 1.958936 0.287535 -0.217453
v 1.695643 0.287535 -0.413620
v 1.285555 0.287535 -0.569298
v 0.768813 0.287535 -0.669250
v 0.196001 0.287535 -0.703691
v -0.376811 0.287535 -0.669250
v -0.893553 0.287535 -0.569298
v -1.303641 0.287535 -0.413619
v -1.566933 0.287535 -0.217453
v -1.657658 0.287535 0.000000
v -1.566933 0.287535 0.217453
v -1.303640 0.287535 0.413619
v -0.893552 0.287535 0.569298
v -0.376811 0.287535 0.669250
v 0.196001 0.287535 0.703691
v 0.768813 0.287535 0.669250
v 1.285554 0.287535 0.569298
v 1.695642 0.287535 0.413619
v 1.958935 0.287535 0.217453
v 2.049659 0.287535 0.000000
v 1.274153 1.133506 -0.144968
v 1.113132 1.133506 -0.275746
v 0.862335 1.133506 -0.379532
v 0.546314 1.133506 -0.446167
v 0.196001 1.133506 -0.469128
v -0.154312 1.133506 -0.446167
v -0.470333 1.133506 -0.379532
v -0.721130 1.133506 -0.275746
v -0.882151 1.133506 -0.144968
v -0.937635 1.133506 0.000000
v -0.882151 1.133506 0.144968
v -0.721130 1.133506 0.275746
v -0.470333 1.133506 0.379532
v -0.154312 1.133506 0.446167
v 0.196001 1.133506 0.469127
v 0.546313 1.133506 0.446167
v 0.862335 1.133506 0.379532
v 1.113131 1.133506 0.275746
v 1.274152 1.133506 0.144968
v 1.329636 1.133506 0.000000
v 0.137793 2.392643 -0.072484
v 0.069469 2.340552 -0.137873
v -0.036948 2.259417 -0.189766
v -0.171041 2.157181 -0.223083
v -0.319684 2.043852 -0.234564
v -0.468328 1.930523 -0.223083
v -0.602421 1.828287 -0.189766
v -0.708837 1.747153 -0.137873
v -0.777161 1.695061 -0.072484
v -0.800704 1.677111 0.000000
v -0.777161 1.695061 0.072484
v -0.708837 1.747153 0.137873
v -0.602420 1.828287 0.189766
v -0.468327 1.930523 0.223083
v -0.319684 2.043852 0.234564
v -0.171041 2.157181 0.223083
v -0.036948 2.259417 0.189766
v 0.069469 2.340551 0.137873
v 0.137792 2.392643 0.072484
v 0.161335 2.410593 0.000000
v -0.773676 2.766583 0.000000
vt 0.737764 0.172746
vt 0.702254 0.103054
vt 0.646946 0.047746
vt 0.577254 0.012236
vt 0.500000 -0.000000
vt 0.422746 0.012236
vt 0.353054 0.047746
vt 0.297746 0.103054
vt 0.262236 0.172746
vt 0.250000 0.250000
vt 0.262236 0.327254
vt 0.297746 0.396946
vt 0.353054 0.452254
vt 0.422746 0.487764
vt 0.500000 0.500000
vt 0.577254 0.487764
vt 0.646946 0.452254
vt 0.702254 0.396946
vt 0.737764 0.327254
vt 0.750000 0.250000
vt 0.250000 0.500000
vt 0.275000 0.500000
vt 0.300000 0.500000
vt 0.325000 0.500000
vt 0.350000 0.500000
vt 0.375000 0.500000
vt 0.400000 0.500000
vt 0.425000 0.500000
vt 0.450000 0.500000
vt 0.475000 0.500000
vt 0.500000 0.500000
vt 0.525000 0.500000
vt 0.550000 0.500000
vt 0.575000 0.500000
vt 0.600000 0.500000
vt 0.625000 0.500000
vt 0.650000 0.500000
vt 0.675000 0.500000
vt 0.700000 0.500000
vt 0.725000 0.500000
vt 0.750000 0.500000
vt 0.312500 0.625000
vt 0.331250 0.625000
vt 0.350000 0.625000
vt 0.368750 0.625000
vt 0.387500 0.625000
vt 0.406250 0.625000
vt 0.425000 0.625000
vt 0.443750 0.625000
vt 0.462500 0.625000
vt 0.481250 0.625000
vt 0.500000 0.625000
vt 0.518750 0.625000
vt 0.537500 0.625000
vt 0.556250 0.625000
vt 0.575000 0.625000
vt 0.593750 0.625000
vt 0.612500 0.625000
vt 0.631250 0.625000
vt 0.650000 0.625000
vt 0.668750 0.625000
vt 0.687500 0.625000
vt 0.375000 0.750000
vt 0.387500 0.750000
vt 0.400000 0.750000
vt 0.412500 0.750000
vt 0.425000 0.750000
vt 0.437500 0.750000
vt 0.450000 0.750000
vt 0.462500 0.750000
vt 0.475000 0.750000
vt 0.487500 0.750000
vt 0.500000 0.750000
vt 0.512500 0.750000
vt 0.525000 0.750000
vt 0.537500 0.750000
vt 0.550000 0.750000
vt 0.562500 0.750000
vt 0.575000 0.750000
vt 0.587500 0.750000
vt 0.600000 0.750000
vt 0.612500 0.750000
vt 0.625000 0.750000
vt 0.437500 0.875000
vt 0.443750 0.875000
vt 0.450000 0.875000
vt 0.456250 0.875000
vt 0.462500 0.875000
vt 0.468750 0.875000
vt 0.475000 0.875000
vt 0.481250 0.875000
vt 0.487500 0.875000
vt 0.493750 0.875000
vt 0.500000 0.875000
vt 0.506250 0.875000
vt 0.512500 0.875000
vt 0.518750 0.875000
vt 0.525000 0.875000
vt 0.531250 0.875000
vt 0.537500 0.875000
vt 0.543750 0.875000
vt 0.550000 0.875000
vt 0.556250 0.875000
vt 0.562500 0.875000
vt 0.500000 1.000000
vn 0.686591 0.406036 -0.603098
vn 0.430375 0.310337 -0.847625
vn 0.437615 0.358721 -0.824507
vn 0.673426 0.472812 -0.568283
vn 0.248177 0.262949 -0.932344
vn 0.258949 0.291674 -0.920799
vn 0.111888 0.250392 -0.961657
vn 0.121824 0.263283 -0.956996
vn -0.005195 0.263583 -0.964623
vn 0.002949 0.264119 -0.964486
vn -0.120741 0.301389 -0.945826
vn -0.114761 0.292167 -0.949457
vn -0.250126 0.368976 -0.895150
vn -0.247083 0.351897 -0.902839
vn -0.409196 0.476515 -0.778134
vn -0.411426 0.453494 -0.790615
vn -0.596011 0.621689 -0.508207
vn -0.608917 0.596806 -0.522534
vn -0.703713 0.710485 -0.000000
vn -0.726095 0.687594 -0.000000
vn -0.596011 0.621689 0.508207
vn -0.608917 0.596806 0.522535
vn -0.409196 0.476515 0.778134
vn -0.411425 0.453494 0.790615
vn -0.250126 0.368976 0.895150
vn -0.247083 0.351897 0.902839
vn -0.120741 0.301389 0.945826
vn -0.114761 0.292167 0.949457
vn -0.005195 0.263583 0.964623
vn 0.002949 0.264119 0.964486
vn 0.111888 0.250392 0.961657
vn 0.121824 0.263283 0.956996
vn 0.248177 0.262949 0.932344
vn 0.258949 0.291674 0.920799
vn 0.430375 0.310337 0.847625
vn 0.437615 0.358721 0.824507
vn 0.686590 0.406035 0.603100
vn 0.673426 0.472812 0.568284
vn 0.874023 0.485885 0.000002
vn 0.830751 0.556644 0.000002
vn 0.417114 0.431814 -0.799720
vn 0.625001 0.571054 -0.532231
vn 0.246294 0.334679 -0.909576
vn 0.109485 0.278308 -0.954231
vn -0.011914 0.252977 -0.967399
vn -0.134118 0.255329 -0.957507
vn -0.274031 0.288644 -0.917383
vn -0.453195 0.362671 -0.814299
vn -0.680990 0.481832 -0.551445
vn -0.825607 0.564245 0.000000
vn -0.680989 0.481832 0.551445
vn -0.453195 0.362671 0.814300
vn -0.274031 0.288644 0.917383
vn -0.134118 0.255329 0.957507
vn -0.011914 0.252977 0.967399
vn 0.109485 0.278308 0.954231
vn 0.246295 0.334679 0.909576
vn 0.417114 0.431814 0.799720
vn 0.625001 0.571054 0.532233
vn 0.750443 0.660935 0.000002
vn 0.365002 0.466500 -0.805700
vn 0.563740 0.627036 -0.537608
vn 0.199367 0.350275 -0.915183
vn 0.063306 0.273884 -0.959677
vn -0.061309 0.222675 -0.972963
vn -0.191043 0.187635 -0.963481
vn -0.344591 0.164513 -0.924225
vn -0.547566 0.152989 -0.822658
vn -0.813613 0.155432 -0.560245
vn -0.986659 0.162799 0.000000
vn -0.813613 0.155432 0.560245
vn -0.547565 0.152989 0.822658
vn -0.344591 0.164513 0.924225
vn -0.191042 0.187635 0.963481
vn -0.061309 0.222675 0.972963
vn 0.063306 0.273884 0.959677
vn 0.199367 0.350275 0.915183
vn 0.365002 0.466500 0.805699
vn 0.563740 0.627035 0.537610
vn 0.683348 0.730093 0.000002
vn 0.000000 -1.000000 -0.000000
vn 0.000000 -1.000000 -0.000000
vn 0.000000 -1.000000 -0.000000
vn 0.000000 -1.000000 -0.000000
vn 0.000000 -1.000000 -0.000000
vn 0.000000 -1.000000 -0.000000
vn 0.000000 -1.000000 -0.000000
vn 0.000000 -1.000000 -0.000000
vn 0.000000 -1.000000 -0.000000
vn 0.000000 -1.000000 -0.000000
vn 0.000000 -1.000000 -0.000000
vn 0.000000 -1.000000 -0.000000
vn 0.000000 -1.000000 -0.000000
vn 0.000000 -1.000000 -0.000000
vn 0.000000 -1.000000 -0.000000
vn 0.000000 -1.000000 -0.000000
vn 0.000000 -1.000000 -0.000000
vn 0.000000 -1.000000 -0.000000
vn 0.000000 -1.000000 -0.000000
vn 0.000000 -1.000000 -0.000000
vn -0.486280 0.873803 -0.000002
s 1
g pCone1
usemtl initialShadingGroup
f 1/21/1 2/22/2 22/43/3 21/42/4
f 2/22/2 3/23/5 23/44/6 22/43/3
f 3/23/5 4/24/7 24/45/8 23/44/6
f 4/24/7 5/25/9 25/46/10 24/45/8
f 5/25/9 6/26/11 26/47/12 25/46/10
f 6/26/11 7/27/13 27/48/14 26/47/12
f 7/27/13 8/28/15 28/49/16 27/48/14
f 8/28/15 9/29/17 29/50/18 28/49/16
f 9/29/17 10/30/19 30/51/20 29/50/18
f 10/30/19 11/31/21 31/52/22 30/51/20
f 11/31/21 12/32/23 32/53/24 31/52/22
f 12/32/23 13/33/25 33/54/26 32/53/24
f 13/33/25 14/34/27 34/55/28 33/54/26
f 14/34/27 15/35/29 35/56/30 34/55/28
f 15/35/29 16/36/31 36/57/32 35/56/30
f 16/36/31 17/37/33 37/58/34 36/57/32
f 17/37/33 18/38/35 38/59/36 37/58/34
f 18/38/35 19/39/37 39/60/38 38/59/36
f 19/39/37 20/40/39 40/61/40 39/60/38
f 20/40/39 1/41/1 21/62/4 40/61/40
f 21/42/4 22/43/3 42/64/41 41/63/42
f 22/43/3 23/44/6 43/65/43 42/64/41
f 23/44/6 24/45/8 44/66/44 43/65/43
f 24/45/8 25/46/10 45/67/45 44/66/44
f 25/46/10 26/47/12 46/68/46 45/67/45
f 26/47/12 27/48/14 47/69/47 46/68/46
f 27/48/14 28/49/16 48/70/48 47/69/47
f 28/49/16 29/50/18 49/71/49 48/70/48
f 29/50/18 30/51/20 50/72/50 49/71/49
f 30/51/20 31/52/22 51/73/51 50/72/50
f 31/52/22 32/53/24 52/74/52 51/73/51
f 32/53/24 33/54/26 53/75/53 52/74/52
f 33/54/26 34/55/28 54/76/54 53/75/53
f 34/55/28 35/56/30 55/77/55 54/76/54
f 35/56/30 36/57/32 56/78/56 55/77/55
f 36/57/32 37/58/34 57/79/57 56/78/56
f 37/58/34 38/59/36 58/80/58 57/79/57
f 38/59/36 39/60/38 59/81/59 58/80/58
f 39/60/38 40/61/40 60/82/60 59/81/59
f 40/61/40 21/62/4 41/83/42 60/82/60
f 41/63/42 42/64/41 62/85/61 61/84/62
f 42/64/41 43/65/43 63/86/63 62/85/61
f 43/65/43 44/66/44 64/87/64 63/86/63
f 44/66/44 45/67/45 65/88/65 64/87/64
f 45/67/45 46/68/46 66/89/66 65/88/65
f 46/68/46 47/69/47 67/90/67 66/89/66
f 47/69/47 48/70/48 68/91/68 67/90/67
f 48/70/48 49/71/49 69/92/69 68/91/68
f 49/71/49 50/72/50 70/93/70 69/92/69
f 50/72/50 51/73/51 71/94/71 70/93/70
f 51/73/51 52/74/52 72/95/72 71/94/71
f 52/74/52 53/75/53 73/96/73 72/95/72
f 53/75/53 54/76/54 74/97/74 73/96/73
f 54/76/54 55/77/55 75/98/75 74/97/74
f 55/77/55 56/78/56 76/99/76 75/98/75
f 56/78/56 57/79/57 77/100/77 76/99/76
f 57/79/57 58/80/58 78/101/78 77/100/77
f 58/80/58 59/81/59 79/102/79 78/101/78
f 59/81/59 60/82/60 80/103/80 79/102/79
f 60/82/60 41/83/42 61/104/62 80/103/80
s off
f 1/1/81 20/20/82 19/19/83 18/18/84 17/17/85 16/16/86 15/15/87 14/14/88 13/13/89 12/12/90 11/11/91 10/10/92 9/9/93 8/8/94 7/7/95 6/6/96 5/5/97 4/4/98 3/3/99 2/2/100
s 1
f 61/84/62 62/85/61 81/105/101
f 62/85/61 63/86/63 81/105/101
f 63/86/63 64/87/64 81/105/101
f 64/87/64 65/88/65 81/105/101
f 65/88/65 66/89/66 81/105/101
f 66/89/66 67/90/67 81/105/101
f 67/90/67 68/91/68 81/105/101
f 68/91/68 69/92/69 81/105/101
f 69/92/69 70/93/70 81/105/101
f 70/93/70 71/94/71 81/105/101
f 71/94/71 72/95/72 81/105/101
f 72/95/72 73/96/73 81/105/101
f 73/96/73 74/97/74 81/105/101
f 74/97/74 75/98/75 81/105/101
f 75/98/75 76/99/76 81/105/101
f 76/99/76 77/100/77 81/105/101
f 77/100/77 78/101/78 81/105/101
f 78/101/78 79/102/79 81/105/101
f 79/102/79 80/103/80 81/105/101
f 80/103/80 61/104/62 81/105/101
